<svg width="40" height="40" viewBox="0 0 40 40" fill="none" xmlns="http://www.w3.org/2000/svg">
<mask id="path-1-inside-1_636_1179" fill="white">
<path d="M20 0L26.7984 12.2728L40 15.2786L31 25.8695L32.3607 40L20 34.2728L7.63932 40L9 25.8695L0 15.2786L13.2016 12.2728L20 0Z"/>
</mask>
<path d="M20 0L26.7984 12.2728L40 15.2786L31 25.8695L32.3607 40L20 34.2728L7.63932 40L9 25.8695L0 15.2786L13.2016 12.2728L20 0Z" fill="#00D8D6"/>
<path d="M20 0L21.7495 -0.969126L20 -4.12743L18.2505 -0.969126L20 0ZM26.7984 12.2728L25.0489 13.2419L25.4823 14.0243L26.3544 14.2228L26.7984 12.2728ZM40 15.2786L41.524 16.5737L43.6596 14.0607L40.444 13.3285L40 15.2786ZM31 25.8695L29.476 24.5744L28.9281 25.2191L29.0092 26.0612L31 25.8695ZM32.3607 40L31.5199 41.8147L34.6859 43.2816L34.3515 39.8083L32.3607 40ZM20 34.2728L20.8408 32.4581L20 32.0685L19.1592 32.4581L20 34.2728ZM7.63932 40L5.64853 39.8083L5.31407 43.2816L8.48014 41.8147L7.63932 40ZM9 25.8695L10.9908 26.0612L11.0719 25.2191L10.524 24.5744L9 25.8695ZM0 15.2786L-0.444017 13.3285L-3.65959 14.0607L-1.52404 16.5737L0 15.2786ZM13.2016 12.2728L13.6456 14.2228L14.5177 14.0243L14.9511 13.2419L13.2016 12.2728ZM18.2505 0.969126L25.0489 13.2419L28.5479 11.3036L21.7495 -0.969126L18.2505 0.969126ZM26.3544 14.2228L39.556 17.2287L40.444 13.3285L27.2424 10.3227L26.3544 14.2228ZM38.476 13.9835L29.476 24.5744L32.524 27.1646L41.524 16.5737L38.476 13.9835ZM29.0092 26.0612L30.3699 40.1917L34.3515 39.8083L32.9908 25.6778L29.0092 26.0612ZM33.2015 38.1853L20.8408 32.4581L19.1592 36.0874L31.5199 41.8147L33.2015 38.1853ZM19.1592 32.4581L6.7985 38.1853L8.48014 41.8147L20.8408 36.0874L19.1592 32.4581ZM9.63011 40.1917L10.9908 26.0612L7.00921 25.6778L5.64853 39.8083L9.63011 40.1917ZM10.524 24.5744L1.52404 13.9835L-1.52404 16.5737L7.47596 27.1646L10.524 24.5744ZM0.444017 17.2287L13.6456 14.2228L12.7576 10.3227L-0.444017 13.3285L0.444017 17.2287ZM14.9511 13.2419L21.7495 0.969126L18.2505 -0.969126L11.4521 11.3036L14.9511 13.2419Z" fill="white" mask="url(#path-1-inside-1_636_1179)"/>
</svg>
