<svg width="50" height="50" viewBox="0 0 50 50" fill="none" xmlns="http://www.w3.org/2000/svg">
<mask id="path-1-inside-1_636_1181" fill="white">
<path d="M25 0L33.498 15.3409L50 19.0983L38.75 32.3369L40.4509 50L25 42.8409L9.54915 50L11.25 32.3369L0 19.0983L16.502 15.3409L25 0Z"/>
</mask>
<path d="M25 0L33.498 15.3409L50 19.0983L38.75 32.3369L40.4509 50L25 42.8409L9.54915 50L11.25 32.3369L0 19.0983L16.502 15.3409L25 0Z" fill="#FF3F34"/>
<path d="M25 0L28.499 -1.93825L25 -8.25486L21.501 -1.93825L25 0ZM33.498 15.3409L29.9989 17.2792L30.8657 18.844L32.6099 19.2411L33.498 15.3409ZM50 19.0983L53.0481 21.6885L57.3192 16.6624L50.888 15.1981L50 19.0983ZM38.75 32.3369L35.7019 29.7467L34.6062 31.036L34.7684 32.7203L38.75 32.3369ZM40.4509 50L38.7692 53.6293L45.1014 56.5633L44.4324 49.6166L40.4509 50ZM25 42.8409L26.6816 39.2116L25 38.4324L23.3184 39.2116L25 42.8409ZM9.54915 50L5.56757 49.6166L4.89864 56.5633L11.2308 53.6293L9.54915 50ZM11.25 32.3369L15.2316 32.7203L15.3938 31.036L14.2981 29.7467L11.25 32.3369ZM0 19.0983L-0.888033 15.1981L-7.31919 16.6624L-3.04807 21.6885L0 19.0983ZM16.502 15.3409L17.3901 19.2411L19.1343 18.844L20.0011 17.2792L16.502 15.3409ZM21.501 1.93825L29.9989 17.2792L36.997 13.4027L28.499 -1.93825L21.501 1.93825ZM32.6099 19.2411L49.112 22.9985L50.888 15.1981L34.386 11.4408L32.6099 19.2411ZM46.9519 16.5081L35.7019 29.7467L41.7981 34.9271L53.0481 21.6885L46.9519 16.5081ZM34.7684 32.7203L36.4693 50.3834L44.4324 49.6166L42.7316 31.9535L34.7684 32.7203ZM42.1325 46.3707L26.6816 39.2116L23.3184 46.4703L38.7692 53.6293L42.1325 46.3707ZM23.3184 39.2116L7.86752 46.3707L11.2308 53.6293L26.6816 46.4703L23.3184 39.2116ZM13.5307 50.3834L15.2316 32.7203L7.26842 31.9535L5.56757 49.6166L13.5307 50.3834ZM14.2981 29.7467L3.04807 16.5081L-3.04807 21.6885L8.20192 34.9271L14.2981 29.7467ZM0.888033 22.9985L17.3901 19.2411L15.614 11.4408L-0.888033 15.1981L0.888033 22.9985ZM20.0011 17.2792L28.499 1.93825L21.501 -1.93825L13.003 13.4027L20.0011 17.2792Z" fill="white" mask="url(#path-1-inside-1_636_1181)"/>
</svg>
